<svg width="42" height="43" viewBox="0 0 42 43" fill="none" xmlns="http://www.w3.org/2000/svg">
<circle cx="20" cy="20.2515" r="19.5" fill="white" stroke="#CED4DA"/>
<path d="M10.154 24.7515L13.752 14.3215H16.216L19.814 24.7515H17.742L17 22.5115H12.968L12.212 24.7515H10.154ZM13.514 20.8315H16.454L14.718 15.6375H15.25L13.514 20.8315ZM20.9748 24.7515V14.3215H24.3768C25.4781 14.3215 26.4348 14.5455 27.2468 14.9935C28.0681 15.4321 28.7028 16.0435 29.1508 16.8275C29.5988 17.6021 29.8228 18.5028 29.8228 19.5295C29.8228 20.5468 29.5988 21.4521 29.1508 22.2455C28.7028 23.0295 28.0681 23.6455 27.2468 24.0935C26.4348 24.5321 25.4781 24.7515 24.3768 24.7515H20.9748ZM22.8788 23.0715H24.4188C25.1281 23.0715 25.7395 22.9268 26.2528 22.6375C26.7755 22.3388 27.1815 21.9281 27.4708 21.4055C27.7601 20.8735 27.9048 20.2481 27.9048 19.5295C27.9048 18.8015 27.7601 18.1761 27.4708 17.6535C27.1815 17.1308 26.7755 16.7248 26.2528 16.4355C25.7395 16.1461 25.1281 16.0015 24.4188 16.0015H22.8788V23.0715Z" fill="#072A40"/>
<rect x="30" y="30.0839" width="12" height="12" rx="6" fill="#F8F9FA"/>
<rect x="32.0001" y="32.0847" width="8" height="8" rx="4" fill="#28A745"/>
</svg>
