<svg width="24" height="25" viewBox="0 0 24 25" fill="none" xmlns="http://www.w3.org/2000/svg">
<g id="Communication Icon">
<g id="Vector">
<path d="M10.5 24.1675C11.9202 24.1675 13.0714 22.9922 13.0714 21.5425H7.92857C7.92857 22.9922 9.07984 24.1675 10.5 24.1675Z" fill="#072A40"/>
<path d="M11.7795 4.60996C11.7836 4.5672 11.7857 4.52384 11.7857 4.47998C11.7857 3.75511 11.2101 3.16748 10.5 3.16748C9.78992 3.16748 9.21429 3.75511 9.21429 4.47998C9.21429 4.52385 9.21639 4.56721 9.22051 4.60997C6.28312 5.21557 4.07146 7.86536 4.07146 11.0425C4.07146 12.4831 3.42857 18.9175 1.5 20.23H19.5C17.5714 18.9175 16.9286 12.4831 16.9286 11.0425C16.9286 7.86534 14.7169 5.21553 11.7795 4.60996Z" fill="#072A40"/>
</g>
<circle id="Ellipse 1" cx="18" cy="6.16748" r="4.5" fill="#045097"/>
</g>
</svg>
